<?xml version="1.0" encoding="UTF-8" standalone="no"?>
<svg
    xmlns:dc="http://purl.org/dc/elements/1.1/"
    xmlns:cc="http://creativecommons.org/ns#"
    xmlns:rdf="http://www.w3.org/1999/02/22-rdf-syntax-ns#"
    xmlns:svg="http://www.w3.org/2000/svg"
    xmlns="http://www.w3.org/2000/svg"
    xml:space="preserve"
    enable-background="new 0 0 126.611 126.611"
    viewBox="0 0 126.611 126.611"
    height="126.611px"
    width="126.611px"
    y="0px"
    x="0px"
    id="Your_design"
    version="1.1"
>
    <metadata id="metadata1951">
        <rdf:RDF>
            <cc:Work rdf:about="">
                <dc:format>image/svg+xml</dc:format>
                <dc:type rdf:resource="http://purl.org/dc/dcmitype/StillImage" />
                <dc:title></dc:title>
            </cc:Work>
        </rdf:RDF>
    </metadata>
    <defs id="defs1949" />

    <path
        id="path1955"
        d="m 55.57595,119.26281 -7.040773,-7.04185 7.111913,-7.11298 7.11191,-7.11298 7.07794,7.07688 7.07795,7.07689 -7.07688,7.07794 c -3.89229,3.89287 -7.10937,7.07795 -7.14909,7.07795 -0.0397,0 -3.24055,-3.16884 -7.11297,-7.04185 z"
        style="fill:#d40000;stroke-width:0.14226"
    />
    <path
        id="path1961"
        d="M 55.64584,21.196135 48.60489,14.154108 55.68194,7.077054 62.759,0 l 7.07705,7.077054 7.07706,7.077054 -7.04095,7.042027 c -3.87253,3.873116 -7.07345,7.042029 -7.11316,7.042029 -0.0397,0 -3.24064,-3.168913 -7.11316,-7.042029 z"
        style="fill:#d40000;stroke-width:0.14226"
    />
    <ellipse
        ry="12.885777"
        rx="13.046075"
        cy="63.119076"
        cx="62.862236"
        id="path1965"
        style="fill:#d40000;stroke-width:1.04368"
    />
    <path
        id="path1953"
        d="M 79.989971,31.551096 87.067197,24.47387 106.45025,43.856532 125.8333,63.239192 106.4508,82.622084 87.068294,102.00498 79.990406,94.92815 72.912518,87.851325 85.182208,75.581018 97.4519,63.310712 85.182322,51.040518 C 78.434054,44.291913 72.912745,38.738374 72.912745,38.699324 c 0,-0.03905 3.184751,-3.255754 7.077226,-7.148228 z"
        style="fill:#d40000;stroke-width:0.14226"
    />
    <path
        id="path1957"
        d="m 19.069324,43.848908 19.383225,-19.382839 7.112193,7.11326 7.112192,7.113259 -12.304722,12.305339 -12.304721,12.305334 12.269691,12.27031 12.269691,12.27031 -7.077888,7.07682 -7.077888,7.076829 L 19.068594,82.614641 -0.31390568,63.231745 Z"
        style="fill:#d40000;stroke-width:0.14226"
    />
</svg>
